<svg id="visual" viewBox="0 0 960 540" width="960" height="540" xmlns="http://www.w3.org/2000/svg" xmlns:xlink="http://www.w3.org/1999/xlink" version="1.1"><g><g transform="translate(325 433)"><path d="M82.9 -26.6C93.1 4.4 77.1 44.3 47.2 66.4C17.2 88.4 -26.7 92.8 -53.5 73.4C-80.3 53.9 -90 10.8 -78.2 -22.4C-66.5 -55.6 -33.2 -78.8 1.6 -79.3C36.3 -79.8 72.7 -57.6 82.9 -26.6Z" fill="none" stroke="#FFD1D1" stroke-width="12"></path></g><g transform="translate(675 95)"><path d="M62.8 -18.8C72.7 9.9 65.9 45.6 43.2 63C20.5 80.3 -18.2 79.2 -43.3 60.7C-68.4 42.2 -80 6.2 -70.6 -22C-61.1 -50.2 -30.6 -70.5 -2 -69.9C26.5 -69.2 53 -47.5 62.8 -18.8Z" fill="none" stroke="#FFD1D1" stroke-width="12"></path></g><g transform="translate(764 420)"><path d="M48.9 -18.2C54.8 2.3 45.2 25.6 27 39.3C8.8 53 -17.9 57.2 -35.7 45.2C-53.5 33.1 -62.5 5 -55.1 -17.7C-47.7 -40.4 -23.8 -57.5 -1.2 -57.1C21.5 -56.7 43 -38.8 48.9 -18.2Z" stroke="#FFD1D1" fill="none" stroke-width="12"></path></g><g transform="translate(119 180)"><path d="M71.4 -23.7C79.1 0.5 62.6 32 36.8 50.9C10.9 69.8 -24.4 76 -45.5 61C-66.6 46.1 -73.5 10 -63.5 -17.3C-53.6 -44.6 -26.8 -63.1 2.5 -63.9C31.8 -64.7 63.7 -47.9 71.4 -23.7Z" stroke="#FFD1D1" fill="none" stroke-width="12"></path></g><g transform="translate(11 521)"><path d="M65.9 -20.6C74.1 4 61.8 36 38.6 52.8C15.3 69.7 -18.8 71.2 -40.6 55.5C-62.4 39.7 -71.8 6.7 -63 -18.7C-54.2 -44.1 -27.1 -61.7 0.9 -62C28.8 -62.2 57.6 -45.2 65.9 -20.6Z" stroke="#FFD1D1" fill="none" stroke-width="12"></path></g></g></svg>