<svg id="visual" viewBox="0 0 960 540" width="960" height="540" xmlns="http://www.w3.org/2000/svg" xmlns:xlink="http://www.w3.org/1999/xlink" version="1.1"><path d="M0 448L26.7 453.8C53.3 459.7 106.7 471.3 160 479.8C213.3 488.3 266.7 493.7 320 487.8C373.3 482 426.7 465 480 463C533.3 461 586.7 474 640 487.8C693.3 501.7 746.7 516.3 800 522.8C853.3 529.3 906.7 527.7 933.3 526.8L960 526L960 541L933.3 541C906.7 541 853.3 541 800 541C746.7 541 693.3 541 640 541C586.7 541 533.3 541 480 541C426.7 541 373.3 541 320 541C266.7 541 213.3 541 160 541C106.7 541 53.3 541 26.7 541L0 541Z" fill="#F9B5B5"></path><path d="M0 517L26.7 520.3C53.3 523.7 106.7 530.3 160 528.5C213.3 526.7 266.7 516.3 320 506.3C373.3 496.3 426.7 486.7 480 490C533.3 493.3 586.7 509.7 640 517.5C693.3 525.3 746.7 524.7 800 520C853.3 515.3 906.7 506.7 933.3 502.3L960 498L960 541L933.3 541C906.7 541 853.3 541 800 541C746.7 541 693.3 541 640 541C586.7 541 533.3 541 480 541C426.7 541 373.3 541 320 541C266.7 541 213.3 541 160 541C106.7 541 53.3 541 26.7 541L0 541Z" fill="#fcfcfc"></path></svg>