<svg id="wave" style="transform:rotate(0deg); transition: 0.3s" viewBox="0 0 1440 200" version="1.1" xmlns="http://www.w3.org/2000/svg">
    <defs>
        <linearGradient id="sw-gradient-0" x1="0" x2="0" y1="1" y2="0">
            <stop stop-color="rgba(255, 196.604, 196.604, 1)" offset="0%"></stop>
            <stop stop-color="rgba(253, 165, 165, 1)" offset="100%"></stop>
        </linearGradient>
    </defs>
    <path   style="transform:translate(0, 0px); opacity:1" 
            fill="url(#sw-gradient-0)" 
            d="M0,0L60,23.3C120,47,240,93,360,100C480,107,600,73,720,66.7C840,60,960,80,1080,103.3C1200,127,1320,153,1440,143.3C1560,133,1680,87,1800,86.7C1920,87,2040,133,2160,133.3C2280,133,2400,87,2520,73.3C2640,60,2760,80,2880,80C3000,80,3120,60,3240,56.7C3360,53,3480,67,3600,86.7C3720,107,3840,133,3960,133.3C4080,133,4200,107,4320,106.7C4440,107,4560,133,4680,136.7C4800,140,4920,120,5040,100C5160,80,5280,60,5400,50C5520,40,5640,40,5760,50C5880,60,6000,80,6120,90C6240,100,6360,100,6480,103.3C6600,107,6720,113,6840,120C6960,127,7080,133,7200,116.7C7320,100,7440,60,7560,36.7C7680,13,7800,7,7920,6.7C8040,7,8160,13,8280,36.7C8400,60,8520,100,8580,120L8640,140L8640,200L8580,200C8520,200,8400,200,8280,200C8160,200,8040,200,7920,200C7800,200,7680,200,7560,200C7440,200,7320,200,7200,200C7080,200,6960,200,6840,200C6720,200,6600,200,6480,200C6360,200,6240,200,6120,200C6000,200,5880,200,5760,200C5640,200,5520,200,5400,200C5280,200,5160,200,5040,200C4920,200,4800,200,4680,200C4560,200,4440,200,4320,200C4200,200,4080,200,3960,200C3840,200,3720,200,3600,200C3480,200,3360,200,3240,200C3120,200,3000,200,2880,200C2760,200,2640,200,2520,200C2400,200,2280,200,2160,200C2040,200,1920,200,1800,200C1680,200,1560,200,1440,200C1320,200,1200,200,1080,200C960,200,840,200,720,200C600,200,480,200,360,200C240,200,120,200,60,200L0,200Z">
            </path>
                <defs>
                    <linearGradient id="sw-gradient-1" x1="0" x2="0" y1="1" y2="0">
                        <stop stop-color="#FCFCFC" offset="0%"></stop>
                        <stop stop-color="#FCFCFC" offset="100%"></stop>
                    </linearGradient>
                </defs>
            <path style="transform:translate(0, 50px); opacity:1" fill="url(#sw-gradient-1)" d="M0,120L60,126.7C120,133,240,147,360,143.3C480,140,600,120,720,110C840,100,960,100,1080,83.3C1200,67,1320,33,1440,16.7C1560,0,1680,0,1800,13.3C1920,27,2040,53,2160,70C2280,87,2400,93,2520,100C2640,107,2760,113,2880,106.7C3000,100,3120,80,3240,90C3360,100,3480,140,3600,136.7C3720,133,3840,87,3960,63.3C4080,40,4200,40,4320,40C4440,40,4560,40,4680,43.3C4800,47,4920,53,5040,76.7C5160,100,5280,140,5400,143.3C5520,147,5640,113,5760,90C5880,67,6000,53,6120,66.7C6240,80,6360,120,6480,133.3C6600,147,6720,133,6840,106.7C6960,80,7080,40,7200,46.7C7320,53,7440,107,7560,123.3C7680,140,7800,120,7920,103.3C8040,87,8160,73,8280,60C8400,47,8520,33,8580,26.7L8640,20L8640,200L8580,200C8520,200,8400,200,8280,200C8160,200,8040,200,7920,200C7800,200,7680,200,7560,200C7440,200,7320,200,7200,200C7080,200,6960,200,6840,200C6720,200,6600,200,6480,200C6360,200,6240,200,6120,200C6000,200,5880,200,5760,200C5640,200,5520,200,5400,200C5280,200,5160,200,5040,200C4920,200,4800,200,4680,200C4560,200,4440,200,4320,200C4200,200,4080,200,3960,200C3840,200,3720,200,3600,200C3480,200,3360,200,3240,200C3120,200,3000,200,2880,200C2760,200,2640,200,2520,200C2400,200,2280,200,2160,200C2040,200,1920,200,1800,200C1680,200,1560,200,1440,200C1320,200,1200,200,1080,200C960,200,840,200,720,200C600,200,480,200,360,200C240,200,120,200,60,200L0,200Z">
    </path>
</svg>