<svg id="visual" viewBox="0 0 900 100" width="900" height="100" xmlns="http://www.w3.org/2000/svg" xmlns:xlink="http://www.w3.org/1999/xlink" version="1.1"><path d="M0 3L30 13.7C60 24.3 120 45.7 180 47.3C240 49 300 31 360 29.8C420 28.7 480 44.3 540 50.2C600 56 660 52 720 45.7C780 39.3 840 30.7 870 26.3L900 22L900 101L870 101C840 101 780 101 720 101C660 101 600 101 540 101C480 101 420 101 360 101C300 101 240 101 180 101C120 101 60 101 30 101L0 101Z" fill="#FAB6B6" stroke-linecap="round" stroke-linejoin="miter"></path></svg>